<?xml version="1.0" encoding="UTF-8" standalone="no"?>
<!DOCTYPE svg PUBLIC "-//W3C//DTD SVG 1.1//EN" "http://www.w3.org/Graphics/SVG/1.1/DTD/svg11.dtd">
<!-- Generated by Microsoft Visio, SVG Export Button Mockup.svg Page-1 -->
<svg xmlns="http://www.w3.org/2000/svg" xmlns:xlink="http://www.w3.org/1999/xlink" xmlns:ev="http://www.w3.org/2001/xml-events"
		xmlns:v="http://schemas.microsoft.com/visio/2003/SVGExtensions/" width="8.26772in" height="11.6929in"
		viewBox="0 0 595.276 841.89" xml:space="preserve" color-interpolation-filters="sRGB" class="st2">
	<v:documentProperties v:langID="2057" v:metric="true" v:viewMarkup="false">
		<v:userDefs>
			<v:ud v:nameU="msvNoAutoConnect" v:val="VT0(1):26"/>
		</v:userDefs>
	</v:documentProperties>

	<style type="text/css">
	<![CDATA[
		.st1 {fill:#ffffff;stroke:#000000;stroke-linecap:round;stroke-linejoin:round;stroke-width:0.75}
		.st2 {fill:none;fill-rule:evenodd;font-size:12px;overflow:visible;stroke-linecap:square;stroke-miterlimit:3}
	]]>
	</style>

	<g v:mID="0" v:index="1" v:groupContext="foregroundPage">
		<title>Page-1</title>
		<v:pageProperties v:drawingScale="0.0393701" v:pageScale="0.0393701" v:drawingUnits="24" v:shadowOffsetX="8.50394"
				v:shadowOffsetY="-8.50394"/>
		<g id="shape1-1" v:mID="1" v:groupContext="shape" transform="translate(85.0394,-340.157)">
			<title>Sheet.1</title>
			<ellipse cx="198.425" cy="643.465" rx="198.425" ry="198.425" class="st1"/>
		</g>
		<g id="shape10-3" v:mID="10" v:groupContext="shape" transform="translate(128.268,-383.386)">
			<title>Sheet.10</title>
			<path d="M75.18 819.67 A155.197 155.197 -180 1 0 45.86 796.84 A29.3074 18.2675 90 0 1 27.64 824.11 A48.189 5.30695 -180
						 0 0 75.18 819.67 Z" class="st1"/>
		</g>
		<g id="shape12-5" v:mID="12" v:groupContext="shape" transform="translate(143.858,-398.976)">
			<title>Sheet.12</title>
			<path d="M42.24 802.33 A38.83 17.7438 81.26 0 1 31.89 832.68 A42.5197 17.0079 -180 0 0 69.94 823.26 A139.606 139.606
						 -180 1 0 42.24 802.33 Z" class="st1"/>
		</g>
		<g id="shape13-7" v:mID="13" v:groupContext="shape" transform="translate(187.087,-544.252)">
			<title>Sheet.13</title>
			<rect x="0" y="824.882" width="130.394" height="17.0079" rx="8.50394" ry="8.50394" class="st1"/>
		</g>
		<g id="shape14-9" v:mID="14" v:groupContext="shape" transform="translate(187.087,-511.772)">
			<title>Sheet.14</title>
			<rect x="0" y="824.882" width="181.417" height="17.0079" rx="8.50394" ry="8.50394" class="st1"/>
		</g>
	</g>
</svg>
